PathFileType	4	(X/Y/Z)	pose_F01_0-92.trc
DataRate	CameraRate	NumFrames	NumMarkers	Units	OrigDataRate	OrigDataStartFrame	OrigNumFrames
30	30	6	21	m	30	0	92
Frame#	Time	CHip			RHip			RKnee			RAnkle			RBigToe			RSmallToe			RHeel			LHip			LKnee			LAnkle			LBigToe			LSmallToe			LHeel			Neck			Nose			RShoulder			RElbow			RWrist			LShoulder			LElbow			LWrist			
		X1	Y1	Z1	X2	Y2	Z2	X3	Y3	Z3	X4	Y4	Z4	X5	Y5	Z5	X6	Y6	Z6	X7	Y7	Z7	X8	Y8	Z8	X9	Y9	Z9	X10	Y10	Z10	X11	Y11	Z11	X12	Y12	Z12	X13	Y13	Z13	X14	Y14	Z14	X15	Y15	Z15	X16	Y16	Z16	X17	Y17	Z17	X18	Y18	Z18	X19	Y19	Z19	X20	Y20	Z20	X21	Y21	Z21	
0	0.0	-0.24518971204559697	1.877726507784398	-0.5627499022770347	-0.2588298797510333	1.8737422434626414	-0.4912903312453498	-0.2544142144312342	1.7122751004399859	-0.4775281770409159	-0.19217484628224255	1.601807065392978	-0.41107263976794595										-0.227031083939656	1.8810418003252007	-0.6246990202620794	-0.2251774235522867	1.716808379768723	-0.609991107432595	-0.20557912570005643	1.5657779475873326	-0.5925336182726934	-0.24358081775165463	1.5205947924981094	-0.625860646863952	-0.22598209365121014	1.5317310286210195	-0.6395006166779367	-0.19704676740877144	1.5523795097486486	-0.5826491191013584	-0.2281749324643745	2.0574804756254514	-0.5767147955578129	-0.2621882027052458	2.1357851670343977	-0.5992942724966881	-0.24730924237799823	2.0578746992945383	-0.49149455220580013	-0.2553850368803133	1.977764673804183	-0.4295275474234927	-1.5989903621558474	1.8883274568219957	0.8697120889399005	-0.20370787177052352	2.0627338794932917	-0.6631690856176279	-1.4416745238194553	1.8735179166863936	0.653222734822637	-1.3017359465330793	1.8216540558494325	0.43809772712323053
1	0.03333333333333333	-0.24518971204559697	1.877726507784398	-0.5627499022770347	-0.2588298797510333	1.8737422434626414	-0.4912903312453498	-0.2544142144312342	1.7122751004399859	-0.4775281770409159	-0.19217484628224255	1.601807065392978	-0.41107263976794595										-0.227031083939656	1.8810418003252007	-0.6246990202620794	-0.2251774235522867	1.716808379768723	-0.609991107432595	-0.20557912570005643	1.5657779475873326	-0.5925336182726934	-0.24358081775165463	1.5205947924981094	-0.625860646863952	-0.22598209365121014	1.5317310286210195	-0.6395006166779367	-0.19704676740877144	1.5523795097486486	-0.5826491191013584	-0.2281749324643745	2.0574804756254514	-0.5767147955578129	-0.2621882027052458	2.1357851670343977	-0.5992942724966881	-0.24730924237799823	2.0578746992945383	-0.49149455220580013	-0.2553850368803133	1.977764673804183	-0.4295275474234927	-1.5989903621558474	1.8883274568219957	0.8697120889399005	-0.20370787177052352	2.0627338794932917	-0.6631690856176279	-1.4397798708420713	1.8748582479249205	0.6491717970939418	-1.3014466677479384	1.822473990984327	0.43768638064060866
2	0.06666666666666667	-0.24518971204559697	1.877726507784398	-0.5627499022770347	-0.2588298797510333	1.8737422434626414	-0.4912903312453498	-0.2544142144312342	1.7122751004399859	-0.4775281770409159	-0.19217484628224255	1.601807065392978	-0.41107263976794595										-0.227031083939656	1.8810418003252007	-0.6246990202620794	-0.2251774235522867	1.716808379768723	-0.609991107432595	-0.20557912570005643	1.5657779475873326	-0.5925336182726934	-0.24358081775165463	1.5205947924981094	-0.625860646863952	-0.22598209365121014	1.5317310286210195	-0.6395006166779367	-0.19704676740877144	1.5523795097486486	-0.5826491191013584	-0.2281749324643745	2.0574804756254514	-0.5767147955578129	-0.2621882027052458	2.1357851670343977	-0.5992942724966881	-0.24730924237799823	2.0578746992945383	-0.49149455220580013	-0.2553850368803133	1.977764673804183	-0.4295275474234927	-1.5989903621558474	1.8883274568219957	0.8697120889399005	-0.20370787177052352	2.0627338794932917	-0.6631690856176279	-1.4378852178646873	1.8761985791634475	0.6451208593652465	-1.3011573889627972	1.8232939261192216	0.43727503415798674
3	0.1	-0.24518971204559697	1.877726507784398	-0.5627499022770347	-0.2588298797510333	1.8737422434626414	-0.4912903312453498	-0.2544142144312342	1.7122751004399859	-0.4775281770409159	-0.19217484628224255	1.601807065392978	-0.41107263976794595										-0.227031083939656	1.8810418003252007	-0.6246990202620794	-0.2251774235522867	1.716808379768723	-0.609991107432595	-0.20557912570005643	1.5657779475873326	-0.5925336182726934	-0.24358081775165463	1.5205947924981094	-0.625860646863952	-0.22598209365121014	1.5317310286210195	-0.6395006166779367	-0.19704676740877144	1.5523795097486486	-0.5826491191013584	-0.2281749324643745	2.0574804756254514	-0.5767147955578129	-0.2621882027052458	2.1357851670343977	-0.5992942724966881	-0.24730924237799823	2.0578746992945383	-0.49149455220580013	-0.2553850368803133	1.977764673804183	-0.4295275474234927	-1.5989903621558474	1.8883274568219957	0.8697120889399005	-0.20370787177052352	2.0627338794932917	-0.6631690856176279	-1.4359905648873033	1.8775389104019744	0.6410699216365513	-1.300868110177656	1.824113861254116	0.4368636876753648
4	0.13333333333333333	-0.24518971204559697	1.877726507784398	-0.5627499022770347	-0.2588298797510333	1.8737422434626414	-0.4912903312453498	-0.2544142144312342	1.7122751004399859	-0.4775281770409159	-0.19217484628224255	1.601807065392978	-0.41107263976794595										-0.227031083939656	1.8810418003252007	-0.6246990202620794	-0.2251774235522867	1.716808379768723	-0.609991107432595	-0.20557912570005643	1.5657779475873326	-0.5925336182726934	-0.24358081775165463	1.5205947924981094	-0.625860646863952	-0.22598209365121014	1.5317310286210195	-0.6395006166779367	-0.19704676740877144	1.5523795097486486	-0.5826491191013584	-0.2281749324643745	2.0574804756254514	-0.5767147955578129	-0.2621882027052458	2.1357851670343977	-0.5992942724966881	-0.24730924237799823	2.0578746992945383	-0.49149455220580013	-0.2553850368803133	1.977764673804183	-0.4295275474234927	-1.5989903621558474	1.8883274568219957	0.8697120889399005	-0.20370787177052352	2.0627338794932917	-0.6631690856176279	-1.435559671027494	1.8755917569421077	0.6413750361430951	-1.3005788313925148	1.8249337963890104	0.4364523411927429
5	0.16666666666666666	-0.24518971204559697	1.877726507784398	-0.5627499022770347	-0.2588298797510333	1.8737422434626414	-0.4912903312453498	-0.2544142144312342	1.7122751004399859	-0.4775281770409159	-0.19217484628224255	1.601807065392978	-0.41107263976794595										-0.227031083939656	1.8810418003252007	-0.6246990202620794	-0.2251774235522867	1.716808379768723	-0.609991107432595	-0.20557912570005643	1.5657779475873326	-0.5925336182726934	-0.24358081775165463	1.5205947924981094	-0.625860646863952	-0.22598209365121014	1.5317310286210195	-0.6395006166779367	-0.19704676740877144	1.5523795097486486	-0.5826491191013584	-0.2281749324643745	2.0574804756254514	-0.5767147955578129	-0.2621882027052458	2.1357851670343977	-0.5992942724966881	-0.24730924237799823	2.0578746992945383	-0.49149455220580013	-0.2553850368803133	1.977764673804183	-0.4295275474234927	-1.5989903621558474	1.8883274568219957	0.8697120889399005	-0.20370787177052352	2.0627338794932917	-0.6631690856176279	-1.4309730779620842	1.8738832960208678	0.6343508071010494	-1.3002895526073739	1.825753731523905	0.43604099471012103
